<?xml version="1.0" standalone="no"?>
<!DOCTYPE svg PUBLIC "-//W3C//DTD SVG 20010904//EN"
 "http://www.w3.org/TR/2001/REC-SVG-20010904/DTD/svg10.dtd">
<svg version="1.0" xmlns="http://www.w3.org/2000/svg"
 width="32.000000pt" height="32.000000pt" viewBox="0 0 30.000000 30.000000"
 preserveAspectRatio="xMidYMid meet">
<metadata>
Created by potrace 1.16, written by Peter Selinger 2001-2019
</metadata>
<g transform="translate(0.000000,32.000000) scale(0.004348,-0.004348)"
fill="#ffffff" stroke="none">
<path d="M476 6335 c-47 -17 -91 -57 -118 -109 -16 -31 -19 -53 -16 -100 4
-52 14 -78 68 -176 35 -63 90 -154 122 -202 32 -48 58 -91 58 -95 0 -4 -76
-84 -169 -177 -159 -162 -169 -174 -180 -223 -28 -132 51 -242 179 -251 98 -7
119 5 292 176 l157 155 83 -75 c81 -73 274 -221 300 -230 9 -4 -16 -63 -86
-205 -98 -197 -99 -200 -94 -260 6 -83 41 -136 111 -169 91 -42 180 -24 245
50 18 21 71 115 118 209 48 95 87 173 89 175 2 2 49 -13 105 -33 114 -39 283
-80 375 -90 105 -12 95 13 95 -238 0 -124 5 -239 11 -260 13 -47 60 -102 110
-128 106 -54 256 13 288 128 6 21 11 136 11 260 0 251 -10 226 95 238 94 11
262 51 374 90 57 20 104 35 106 33 1 -2 44 -84 95 -183 101 -196 124 -228 185
-256 54 -25 110 -23 172 5 71 33 106 87 111 170 4 61 3 64 -92 254 -53 105
-96 195 -96 200 0 4 15 16 33 27 55 32 188 135 275 213 l83 75 152 -150 c84
-83 166 -158 184 -167 19 -9 56 -16 89 -16 141 0 231 111 203 250 -11 53 -17
60 -180 226 -93 93 -169 173 -169 177 0 4 26 47 58 95 32 48 87 139 122 202
54 98 64 124 68 176 5 72 -16 123 -72 172 -78 68 -187 67 -265 -3 -20 -18 -62
-80 -93 -137 -120 -221 -241 -381 -396 -528 -307 -292 -617 -452 -992 -511
-109 -18 -421 -18 -520 0 -396 69 -700 226 -999 516 -153 148 -271 307 -389
523 -61 113 -110 165 -169 181 -50 14 -79 13 -127 -4z"/>
<path d="M2566 3395 c-47 -17 -91 -57 -118 -109 -16 -31 -19 -53 -16 -100 4
-52 14 -78 68 -176 35 -63 90 -154 122 -202 32 -48 58 -91 58 -95 0 -4 -76
-84 -169 -177 -159 -162 -169 -174 -180 -223 -28 -132 51 -242 179 -251 98 -7
119 5 292 176 l157 155 83 -75 c81 -73 274 -221 300 -230 9 -4 -16 -63 -86
-205 -98 -197 -99 -200 -94 -260 6 -83 41 -136 111 -169 91 -42 180 -24 245
50 18 21 71 115 118 209 48 95 87 173 89 175 2 2 49 -13 105 -33 114 -39 283
-80 375 -90 105 -12 95 13 95 -238 0 -124 5 -239 11 -260 13 -47 60 -102 110
-128 106 -54 256 13 288 128 6 21 11 136 11 260 0 251 -10 226 95 238 94 11
262 51 374 90 57 20 104 35 106 33 1 -2 44 -84 95 -183 101 -196 124 -228 185
-256 54 -25 110 -23 172 5 71 33 106 87 111 170 4 61 3 64 -92 254 -53 105
-96 195 -96 200 0 4 15 16 33 27 55 32 188 135 275 213 l83 75 152 -150 c84
-83 166 -158 184 -167 19 -9 56 -16 89 -16 141 0 231 111 203 250 -11 53 -17
60 -180 226 -93 93 -169 173 -169 177 0 4 26 47 58 95 32 48 87 139 122 202
54 98 64 124 68 176 5 72 -16 123 -72 172 -78 68 -187 67 -265 -3 -20 -18 -62
-80 -93 -137 -120 -221 -241 -381 -396 -528 -307 -292 -617 -452 -992 -511
-109 -18 -421 -18 -520 0 -396 69 -700 226 -999 516 -153 148 -271 307 -389
523 -61 113 -110 165 -169 181 -50 14 -79 13 -127 -4z"/>
</g>
</svg>
